<svg id="Layer_1" data-name="Layer 1" xmlns="http://www.w3.org/2000/svg" viewBox="0 0 108.26 84.53"><defs><style>.cls-1{fill:#f2564d;}.cls-2{fill:#fac3c0;}.cls-3{fill:#fff;}.cls-4{fill:#733ca6;}</style></defs><title>logo</title><polygon class="cls-1" points="29.73 84.53 51.74 40 22.2 0.47 0 45.13 29.73 84.53"/><polygon class="cls-2" points="36.71 84.53 85.91 84.52 95.98 64.19 46.77 64.19 36.71 84.53"/><polygon class="cls-3" points="58.98 39.53 49.99 57.7 99.19 57.7 108.26 39.45 78.78 0 29.43 0 58.98 39.53"/><path class="cls-4" d="M34.42,2.5h43.1l27.82,37.21L97.64,55.2H54l7.2-14.56.69-1.37L61,38,34.42,2.5m-5-2.5L59,39.53,50,57.7h49.2l9.07-18.25L78.77,0Z"/></svg>